<svg width="1080" height="1080" viewBox="0 0 1080 1080" fill="none" xmlns="http://www.w3.org/2000/svg">
<rect width="1080" height="1080" fill="#151515"/>
<rect x="221" y="530" width="637" height="175" fill="url(#paint0_linear_1_2)"/>
<path d="M252.098 673V572.658H279.49V650.661H370.823V673H252.098ZM443.406 572.658L379.686 673H409.129L423.118 651.027H491.014L504.856 673H534.373L470.652 572.658H443.406ZM457.103 597.561L477.464 629.787H436.595L457.103 597.561ZM543.162 572.658V673H647.972C656.614 673 663.89 670.29 669.798 664.87C675.804 659.353 678.807 652.712 678.807 644.948C678.807 639.724 677.342 634.914 674.412 630.52C671.482 626.125 667.576 622.707 662.693 620.266C665.77 617.727 668.187 614.724 669.944 611.257C671.702 607.741 672.581 604.03 672.581 600.124C672.728 592.556 669.798 586.086 663.792 580.715C657.884 575.344 650.73 572.658 642.332 572.658H543.162ZM570.555 593.972H633.47C636.448 593.972 638.963 594.924 641.014 596.828C643.064 598.684 644.09 601.003 644.09 603.786C644.09 606.472 643.064 608.767 641.014 610.671C638.963 612.575 636.448 613.527 633.47 613.527H570.555V593.972ZM570.555 632.204H640.354C643.284 632.155 645.774 633.083 647.825 634.987C649.925 636.892 650.975 639.211 650.975 641.945C651.121 644.68 650.096 646.999 647.898 648.903C645.848 650.808 643.333 651.76 640.354 651.76H570.555V632.204ZM725.315 572.658C716.087 572.951 708.274 576.003 701.878 581.813C695.433 587.526 692.21 594.582 692.21 602.98C692.21 611.281 695.433 618.41 701.878 624.367C708.323 630.227 716.136 633.181 725.315 633.229H789.988C792.625 633.229 794.896 634.108 796.8 635.866C798.704 637.575 799.656 639.675 799.656 642.165C799.656 644.558 798.729 646.633 796.873 648.391C795.018 649.953 792.723 650.808 789.988 650.954H727.293C724.656 650.954 722.386 650.075 720.481 648.317C718.577 646.56 717.625 644.46 717.625 642.019V641.872H691.99C691.99 650.515 695.311 657.863 701.951 663.918C708.689 669.973 716.746 673 726.121 673H792.552C802.073 673 810.105 669.973 816.648 663.918C823.387 657.863 826.731 650.515 826.683 641.872C826.829 633.229 823.509 625.881 816.722 619.826C810.13 613.674 802.073 610.622 792.552 610.671C785.862 610.524 775.486 610.524 761.424 610.671C747.361 610.72 736.961 610.744 730.223 610.744C727.879 610.744 725.901 609.987 724.29 608.474C722.679 606.96 721.849 605.129 721.8 602.98C721.8 600.832 722.605 599.025 724.217 597.561C725.877 595.9 727.879 595.144 730.223 595.29H787.278C789.769 595.144 791.795 595.876 793.357 597.487C795.018 598.952 795.848 600.783 795.848 602.98C795.945 602.98 795.921 603.127 795.774 603.42H822.435V602.98C822.435 594.582 819.212 587.429 812.767 581.521C806.37 575.612 798.558 572.658 789.329 572.658H725.315Z" fill="#151515"/>
<mask id="mask0_1_2" style="mask-type:alpha" maskUnits="userSpaceOnUse" x="230" y="375" width="620" height="109">
<path fill-rule="evenodd" clip-rule="evenodd" d="M290.153 483.912L230 384.743H261.343L305.933 459.301L350.379 384.743H381.722L321.57 483.912H290.153Z" fill="black"/>
<path fill-rule="evenodd" clip-rule="evenodd" d="M390.408 384.743V483.912H417.481V435.414L489.071 483.912H533.589L452.299 431.288L528.089 384.743H483.571L417.481 427.307V384.743H390.408Z" fill="black"/>
<path fill-rule="evenodd" clip-rule="evenodd" d="M537.932 384.743L606.41 448.009V483.912H633.483V448.009L701.959 384.743H662.004L619.946 426.51L577.889 384.743H537.932Z" fill="black"/>
<path fill-rule="evenodd" clip-rule="evenodd" d="M710.647 384.743V483.912H815.896C821.88 483.912 827.406 482.634 832.473 480.076C837.733 477.518 841.955 473.996 845.14 469.508C848.518 465.02 850.135 460.17 849.991 454.958V413.698C850.135 408.486 848.543 403.635 845.214 399.148C842.172 394.66 837.95 391.137 832.545 388.579C827.334 386.022 821.785 384.743 815.896 384.743H710.647ZM737.719 406.821H810.177C813.797 406.677 816.813 407.786 819.226 410.15C821.688 412.322 822.918 415.073 822.918 418.403V450.252C822.918 453.389 821.688 456.116 819.226 458.433C816.813 460.556 813.797 461.69 810.177 461.835H737.719V406.821Z" fill="black"/>
<path fill-rule="evenodd" clip-rule="evenodd" d="M818.373 375V384.883H808.49L818.373 375Z" fill="black"/>
<path fill-rule="evenodd" clip-rule="evenodd" d="M710.647 375V384.883H720.53L710.647 375Z" fill="black"/>
</mask>
<g mask="url(#mask0_1_2)">
<path d="M858 351H221V553H858V351Z" fill="url(#paint1_linear_1_2)"/>
</g>
<defs>
<linearGradient id="paint0_linear_1_2" x1="221" y1="705" x2="858" y2="705" gradientUnits="userSpaceOnUse">
<stop stop-color="#EEEEEE"/>
<stop offset="0.270833" stop-color="#7E7E7E"/>
<stop offset="0.541667" stop-color="#E8E8E8"/>
<stop offset="0.791667" stop-color="#8B8B8B"/>
</linearGradient>
<linearGradient id="paint1_linear_1_2" x1="221" y1="553" x2="858" y2="553" gradientUnits="userSpaceOnUse">
<stop stop-color="#EEEEEE"/>
<stop offset="0.25" stop-color="#7E7E7E"/>
<stop offset="0.5" stop-color="#E8E8E8"/>
<stop offset="0.75" stop-color="#8B8B8B"/>
</linearGradient>
</defs>
</svg>
